<svg width="498" height="498" viewBox="0 0 498 498" fill="none" xmlns="http://www.w3.org/2000/svg">
<path d="M253.382 180.037V218.562H251.629V197.726C251.629 187.806 249.677 182.368 239.757 182.368H181.989V245.972H221.471C231.192 245.972 233.343 239.757 233.343 229.817V225.933H234.897V267.944H233.343V264.239C233.343 254.319 231.211 248.084 221.471 248.084H181.989V302.784C181.989 312.505 183.742 314.656 193.662 314.656H204.359V316.21H153.782V314.656H157.667C167.587 314.656 169.34 312.525 169.34 302.784V193.642C169.34 183.722 167.587 181.77 157.667 181.77H153.782V180.017H253.382V180.037Z" fill="black"/>
<path d="M328.66 180.037V181.79H324.776C314.856 181.79 313.103 183.742 313.103 193.662V294.039C313.103 334.696 291.111 343.441 282.167 345.791C276.529 347.345 263.103 348.321 256.689 347.146C251.829 346.369 247.546 344.417 247.745 340.532C248.143 336.25 251.629 335.473 256.311 337.026C260.793 338.58 272.844 345.592 281.609 344.038C291.728 342.285 300.473 334.118 300.473 295.414V193.642C300.473 183.722 298.72 181.77 288.8 181.77H274.796V180.017H328.66V180.037Z" fill="black"/>
<path d="M275.673 447.164C212.068 457.782 145.954 436.527 100.397 390.95C55.5569 346.07 34.3819 281.211 44.0232 218.522C49.6008 182.248 65.1384 147.866 88.7834 119.779" stroke="black" stroke-width="0.25" stroke-miterlimit="10"/>
<path d="M196.909 53.4055C234.817 44.6208 275.095 47.0311 311.628 60.4174C344.835 72.5885 374.556 93.6638 397.145 120.855C419.894 148.265 435.113 181.591 440.79 216.75C446.666 253.123 442.443 290.971 428.479 325.094C426.906 328.959 425.192 332.764 423.38 336.509" stroke="black" stroke-width="0.25" stroke-miterlimit="10"/>
<path d="M93.4248 94.4606L96.4726 97.8271L96.3132 97.9666L94.6798 96.1538C93.9029 95.2774 93.3053 94.9586 92.4288 95.7554L87.389 100.317L92.4089 105.875L95.855 102.767C96.7116 101.99 96.3929 101.293 95.616 100.417L95.3172 100.078L95.4566 99.9586L98.7634 103.624L98.6239 103.743L98.3251 103.425C97.5482 102.548 96.871 102.19 96.0144 102.947L92.5682 106.054L96.8909 110.835C97.6678 111.691 97.9865 111.731 98.843 110.954L99.7793 110.118L99.8988 110.257L95.4766 114.241L95.357 114.102L95.6957 113.803C96.5722 113.026 96.5522 112.687 95.7754 111.851L87.1699 102.309C86.393 101.433 86.0743 101.413 85.2178 102.19L84.8791 102.488L84.7397 102.329L93.4248 94.4606Z" fill="black"/>
<path d="M104.142 85.895L104.261 86.0544L103.903 86.3333C102.986 87.0504 102.966 87.3492 103.684 88.2854L110.934 97.608C113.883 101.373 112.468 103.783 111.811 104.64C111.393 105.198 110.217 106.253 109.54 106.612C109.042 106.891 108.504 107.03 108.225 106.652C107.946 106.233 108.225 105.895 108.763 105.715C109.281 105.536 110.915 105.317 111.612 104.54C112.428 103.644 112.648 102.249 109.839 98.6638L102.488 89.2217C101.771 88.3054 101.472 88.2456 100.536 88.9627L99.2414 89.9786L99.1219 89.8193L104.142 85.895Z" fill="black"/>
<path d="M128.384 79.0824C130.934 83.0066 129.978 87.7675 125.675 90.5563C121.353 93.365 116.632 92.2694 114.102 88.3452C111.572 84.421 112.468 79.6601 116.791 76.8514C121.094 74.0626 125.835 75.1582 128.384 79.0824ZM127.09 79.939C124.54 76.0147 120.516 74.7797 116.95 77.0904C113.385 79.4011 112.867 83.5843 115.416 87.5086C117.966 91.4328 121.99 92.6678 125.556 90.3571C129.121 88.0265 129.619 83.8433 127.09 79.939Z" fill="black"/>
<path d="M151.053 74.3016C151.073 75.3175 150.774 76.692 149.5 77.2099C147.846 77.8872 146.492 77.1501 144.619 75.0386C142.149 72.2498 140.834 72.9271 138.145 74.2817L136.85 74.939L139.56 80.3174C140.077 81.3333 140.376 81.4728 141.412 80.9349L142.528 80.3573L142.607 80.5166L137.289 83.2058L137.209 83.0465L137.627 82.8473C138.663 82.3293 138.743 82.0106 138.225 80.9748L132.408 69.5009C131.89 68.4849 131.611 68.3654 130.556 68.9033L130.137 69.1025L130.038 68.9232L135.675 66.0746C139.221 64.2818 141.731 64.6005 142.986 67.0905C144.061 69.222 143.304 71.1343 140.874 72.7677C142.308 72.3096 143.942 72.2498 145.416 73.6243C146.99 75.1382 148.125 77.2497 149.559 76.8115C150.456 76.5326 150.854 75.3573 150.814 74.3016H151.053ZM136.751 74.7L139.081 73.5247C142.548 71.7717 142.607 69.6801 141.651 67.8077C140.695 65.9352 139.002 64.74 135.516 66.4929L133.185 67.6682L136.751 74.7Z" fill="black"/>
<path d="M167.806 61.015C169.38 65.1384 167.687 69.6403 162.348 71.6722L158.962 72.967L155.874 74.1422L155.814 73.963L156.213 73.8036C157.308 73.3853 157.408 73.0865 157.009 72.0108L152.448 59.999C152.029 58.9034 151.751 58.764 150.675 59.1823L150.276 59.3417L150.197 59.1425L156.651 56.6923C161.989 54.6605 166.232 56.8915 167.806 61.015ZM166.292 61.5926C164.798 57.6485 161.472 55.1585 156.372 57.0907L153.384 58.2262L158.882 72.6881L161.87 71.5526C166.969 69.6204 167.786 65.5368 166.292 61.5926Z" fill="black"/>
<path d="M191.272 54.5609C192.427 59.0827 189.997 63.3057 185.037 64.5607C180.037 65.8356 175.933 63.2858 174.778 58.764C173.623 54.2421 176.013 50.0191 181.013 48.7442C185.973 47.4893 190.136 50.039 191.272 54.5609ZM189.778 54.9593C188.622 50.4374 185.216 47.9673 181.073 49.0231C176.929 50.0789 175.117 53.8637 176.272 58.4054C177.427 62.9472 180.834 65.3973 184.977 64.3416C189.101 63.2659 190.933 59.4811 189.778 54.9593Z" fill="black"/>
<path d="M311.23 441.547C310.533 444.176 308.621 446.786 305.015 447.523C300.872 448.359 296.469 446.586 295.095 442.204C293.7 437.722 296.33 432.822 301.031 431.706C304.378 430.929 306.111 432.344 306.768 432.105C307.027 431.985 306.868 431.527 306.609 430.511L306.529 430.192L306.728 430.133L308.123 435.352L307.923 435.411L307.704 434.575C307.127 432.403 304.298 431.009 300.752 432.005C297.067 433.081 295.294 436.885 296.509 441.069C297.904 445.969 302.067 447.582 305.633 446.845C308.68 446.208 310.453 443.937 311.051 441.507L311.23 441.547Z" fill="black"/>
<path d="M333.142 437.563L333.202 437.742L328.6 439.535L328.541 439.356L328.959 439.196C330.054 438.778 329.875 438.519 329.039 437.662L326.21 434.734L319.616 437.284V441.308C319.616 442.523 319.955 442.682 321.031 442.244L321.449 442.085L321.509 442.244L317.903 443.638L317.844 443.459L318.202 443.32C319.158 442.941 319.357 442.403 319.357 441.367V425.89L319.616 425.79L330.533 437.045C331.409 437.901 331.827 438.041 332.923 437.622L333.142 437.563ZM325.991 434.515L319.596 427.961L319.616 436.985L325.991 434.515Z" fill="black"/>
<path d="M352.624 425.949C352.664 426.965 352.385 428.36 351.11 428.878C349.457 429.575 348.102 428.858 346.21 426.766C343.72 424.017 342.385 424.714 339.716 426.109L338.441 426.766L341.23 432.105C341.767 433.121 342.066 433.24 343.102 432.702L344.218 432.125L344.297 432.284L339.018 435.033L338.939 434.873L339.337 434.654C340.373 434.117 340.433 433.798 339.915 432.782L333.959 421.388C333.421 420.372 333.142 420.272 332.106 420.81L331.708 421.029L331.608 420.85L337.206 417.922C340.732 416.069 343.242 416.368 344.536 418.838C345.632 420.949 344.915 422.882 342.504 424.555C343.919 424.077 345.572 423.977 347.046 425.352C348.64 426.846 349.795 428.937 351.229 428.479C352.106 428.2 352.504 427.005 352.445 425.969L352.624 425.949ZM338.321 426.547L340.632 425.332C344.078 423.519 344.098 421.447 343.122 419.595C342.146 417.722 340.433 416.567 336.987 418.36L334.676 419.575L338.321 426.547Z" fill="black"/>
<path d="M359.357 404.675L361.847 408.46L361.687 408.559L360.353 406.507C359.715 405.531 359.158 405.133 358.201 405.75L354.676 408.061L362.424 419.914C363.042 420.87 363.361 420.969 364.337 420.332L364.715 420.093L364.815 420.252L360.532 423.061L360.432 422.902L360.791 422.663C361.767 422.025 361.807 421.706 361.17 420.75L353.421 408.898L349.915 411.189C348.939 411.826 349.098 412.483 349.735 413.46L351.07 415.511L350.911 415.611L348.421 411.826L359.357 404.675Z" fill="black"/>
<path d="M380.532 402.703L383.38 406.229L373.958 413.838L373.839 413.699L374.197 413.42C375.114 412.683 375.114 412.364 374.396 411.467L366.329 401.468C365.592 400.551 365.293 400.511 364.377 401.249L364.018 401.527L363.899 401.368L373.002 394.018L375.851 397.543L375.711 397.663L374.177 395.751C373.44 394.834 372.863 394.496 371.946 395.213L366.648 399.476L371.349 405.292L374.954 402.384C375.87 401.647 375.572 400.93 374.855 400.033L374.576 399.675L374.735 399.555L377.843 403.4L377.683 403.519L377.404 403.181C376.667 402.264 376.03 401.846 375.133 402.583L371.528 405.491L376.388 411.507L382.006 406.985C382.902 406.268 382.663 405.631 381.946 404.715L380.412 402.802L380.532 402.703Z" fill="black"/>
<path d="M399.316 388.599C399.655 389.556 399.794 390.97 398.739 391.846C397.384 393.002 395.85 392.703 393.42 391.289C390.213 389.396 389.157 390.452 387.026 392.583L386.01 393.599L390.253 397.862C391.069 398.679 391.388 398.699 392.205 397.882L393.101 396.986L393.221 397.125L388.998 401.328L388.878 401.189L389.197 400.87C390.034 400.053 389.994 399.715 389.197 398.918L380.133 389.795C379.317 388.978 379.018 388.958 378.201 389.795L377.882 390.113L377.743 389.974L382.225 385.512C385.054 382.703 387.524 382.245 389.496 384.217C391.169 385.91 391.05 387.962 389.257 390.273C390.472 389.376 392.006 388.818 393.838 389.695C395.81 390.631 397.543 392.304 398.779 391.448C399.535 390.91 399.555 389.675 399.197 388.679L399.316 388.599ZM385.83 393.4L387.683 391.567C390.432 388.818 389.854 386.826 388.36 385.332C386.866 383.838 384.894 383.241 382.125 385.97L380.273 387.803L385.83 393.4Z" fill="black"/>
<path d="M414.396 372.902L414.535 373.022L411.428 376.866L411.288 376.747L411.567 376.388C412.304 375.472 412.025 375.353 410.87 375.034L406.966 373.898L402.523 379.396L404.515 382.902C405.133 383.958 405.492 383.918 406.229 383.022L406.507 382.663L406.647 382.783L404.217 385.791L404.077 385.671L404.316 385.372C404.974 384.576 404.854 384.018 404.356 383.101L396.627 369.675L396.806 369.456L411.886 373.779C413.081 374.098 413.499 373.998 414.236 373.082L414.396 372.902ZM406.687 373.819L397.882 371.329L402.404 379.157L406.687 373.819Z" fill="black"/>
<path d="M421.806 355.273C423.519 356.807 423.698 359.556 422.085 362.046C420.272 364.855 417.722 365.452 417.503 366.03C417.384 366.309 417.782 366.528 418.679 367.126L418.938 367.305L418.818 367.484L416.388 365.91L414.276 364.536L414.396 364.357L415.113 364.815C416.946 365.99 419.814 364.695 421.687 362.205C423.34 359.934 423.26 357.783 421.547 356.448C419.396 354.775 417.145 356.867 414.734 358.46C411.746 360.472 409.954 360.751 408.26 359.158C406.647 357.624 407.284 354.755 408.3 353.321C409.914 351.03 411.667 350.97 411.746 350.453C411.806 350.233 411.547 350.154 410.651 349.576L410.372 349.397L410.491 349.218L412.902 350.791L415.013 352.166L414.894 352.345L414.177 351.887C412.344 350.712 410.232 350.99 408.48 353.46C407.364 355.034 407.125 356.867 408.798 358.102C410.033 359.018 411.547 358.68 414.157 356.887C417.563 354.556 419.615 353.281 421.806 355.273Z" fill="black"/>
</svg>
