<svg width="250" height="100" viewBox="0 0 250 100" fill="none" xmlns="http://www.w3.org/2000/svg">
<path d="M85.6 85.46C85.17 85.68 84.4 85.87 83.42 85.87C81.38 85.87 79.42 84.49 79.42 81.09C79.42 77.98 81.21 76.17 83.69 76.17C84.69 76.17 85.29 76.39 85.55 76.53L85.34 77.08C84.93 76.88 84.38 76.73 83.66 76.73C81.58 76.73 80.09 78.2 80.09 81.06C80.09 83.84 81.47 85.3 83.6 85.3C84.3 85.3 84.96 85.15 85.41 84.92L85.6 85.46Z" fill="black"/>
<path d="M93.72 82.46L92.68 85.75H92.03L95.09 76.31H95.72L98.78 85.75H98.1L97.04 82.46H93.72ZM96.85 81.91L95.87 78.9C95.66 78.22 95.53 77.69 95.4 77.09H95.36C95.23 77.71 95.09 78.26 94.89 78.89L93.9 81.91H96.85Z" fill="black"/>
<path d="M105.77 76.44C106.29 76.31 106.99 76.24 107.58 76.24C108.71 76.24 109.42 76.49 109.92 76.99C110.33 77.39 110.57 78.03 110.57 78.7C110.57 79.99 109.86 80.77 108.81 81.16V81.19C109.56 81.42 110.01 82.13 110.24 83.27C110.54 84.73 110.71 85.4 110.88 85.74H110.21C110.06 85.46 109.87 84.62 109.63 83.42C109.36 82.05 108.81 81.45 107.6 81.41H106.41V85.74H105.76V76.44H105.77ZM106.41 80.9H107.62C108.99 80.9 109.9 80.08 109.9 78.82C109.9 77.43 109 76.79 107.55 76.79C107.03 76.79 106.63 76.84 106.41 76.9V80.9Z" fill="black"/>
<path d="M119.54 76.85H116.86V76.3H122.88V76.85H120.2V85.74H119.55V76.85H119.54Z" fill="black"/>
<path d="M133.53 81.05H130.14V85.19H133.95V85.74H129.49V76.3H133.74V76.85H130.14V80.49H133.53V81.05Z" fill="black"/>
<path d="M141.04 76.44C141.56 76.31 142.26 76.24 142.85 76.24C143.98 76.24 144.69 76.49 145.19 76.99C145.6 77.39 145.84 78.03 145.84 78.7C145.84 79.99 145.13 80.77 144.08 81.16V81.19C144.83 81.42 145.28 82.13 145.51 83.27C145.81 84.73 145.98 85.4 146.15 85.74H145.48C145.33 85.46 145.14 84.62 144.9 83.42C144.62 82.05 144.07 81.45 142.87 81.41H141.68V85.74H141.03V76.44H141.04ZM141.69 80.9H142.9C144.27 80.9 145.18 80.08 145.18 78.82C145.18 77.43 144.28 76.79 142.83 76.79C142.31 76.79 141.91 76.84 141.69 76.9V80.9Z" fill="black"/>
<path d="M154.26 82.46L153.22 85.75H152.57L155.63 76.31H156.26L159.32 85.75H158.65L157.59 82.46H154.26ZM157.39 81.91L156.41 78.9C156.2 78.22 156.07 77.69 155.94 77.09H155.9C155.77 77.71 155.63 78.26 155.44 78.89L154.45 81.91H157.39Z" fill="black"/>
<path d="M166.03 84.76C166.49 85.07 167.16 85.31 167.84 85.31C169.15 85.31 169.96 84.52 169.96 83.35C169.96 82.31 169.41 81.68 168.24 81.14C167.05 80.66 166 79.87 166 78.53C166 77.15 167.1 76.17 168.58 76.17C169.37 76.17 169.98 76.39 170.26 76.59L170.01 77.14C169.76 76.96 169.22 76.73 168.52 76.73C167.15 76.73 166.65 77.67 166.65 78.41C166.65 79.49 167.26 79.99 168.45 80.56C169.86 81.25 170.6 81.99 170.6 83.31C170.6 84.74 169.59 85.88 167.8 85.88C167.06 85.88 166.2 85.63 165.78 85.31L166.03 84.76Z" fill="black"/>
<path d="M55.7 26.88V36.38H55.27V31.24C55.27 28.79 54.79 27.45 52.34 27.45H38.09V43.15H47.83C50.23 43.15 50.76 41.61 50.76 39.17V38.21H51.14V48.58H50.76V47.67C50.76 45.22 50.23 43.69 47.83 43.69H38.09V57.18C38.09 59.58 38.52 60.11 40.97 60.11H43.61V60.49H31.13V60.1H32.09C34.54 60.1 34.97 59.57 34.97 57.17V30.24C34.97 27.79 34.54 27.31 32.09 27.31H31.13V26.88H55.7Z" fill="black"/>
<path d="M73.08 26.88V27.31H72.12C69.67 27.31 69.24 27.79 69.24 30.24V55.01C69.24 65.04 63.82 67.2 61.61 67.78C60.22 68.16 56.91 68.4 55.32 68.12C54.12 67.93 53.06 67.45 53.11 66.49C53.21 65.43 54.07 65.24 55.22 65.63C56.32 66.01 59.3 67.74 61.46 67.36C63.96 66.93 66.12 64.91 66.12 55.36V30.24C66.12 27.79 65.69 27.31 63.24 27.31H59.78V26.88H73.08Z" fill="black"/>
<path d="M111.67 43.68C111.67 53.47 104.57 60.77 93.81 60.77C83.01 60.77 75.95 53.47 75.95 43.68C75.95 33.89 83.01 26.54 93.81 26.54C104.57 26.54 111.67 33.89 111.67 43.68ZM108.41 43.68C108.41 33.89 102.75 27.12 93.82 27.12C84.89 27.12 79.23 33.89 79.23 43.68C79.23 53.47 84.89 60.24 93.82 60.24C102.74 60.24 108.41 53.47 108.41 43.68Z" fill="black"/>
<path d="M148.2 56.78C147.29 58.7 145.42 61 142.54 60.76C138.8 60.47 136.97 57.78 135.48 52.07C133.51 44.53 130.39 44.53 124.05 44.53H121.03V57.15C121.03 59.55 121.46 60.08 123.91 60.08H126.55V60.46H114.07V60.1H115.03C117.48 60.1 117.91 59.57 117.91 57.17V30.19C117.91 27.79 117.48 27.31 115.03 27.31H114.07V26.88H127.32C135.67 26.88 140.04 29.86 140.04 35.71C140.04 40.7 136.82 43.58 130.73 44.35C133.85 44.83 136.97 46.27 138.41 50.25C139.95 54.57 140.04 59.61 143.16 60.14C145.08 60.48 146.95 58.65 147.86 56.64L148.2 56.78ZM121.03 43.97H126.5C134.66 43.97 136.73 40.13 136.73 35.71C136.73 31.29 134.67 27.45 126.5 27.45H121.03V43.97Z" fill="black"/>
<path d="M181.8 43.68C181.8 52.94 175.13 60.48 163.17 60.48H155.59H148.68V60.1H149.59C152.04 60.1 152.47 59.57 152.47 57.17V30.24C152.47 27.79 152.04 27.31 149.59 27.31H148.68V26.88H163.18C175.13 26.88 181.8 34.41 181.8 43.68ZM178.39 43.68C178.39 34.85 173.73 27.45 162.31 27.45H155.59V59.9H162.31C173.74 59.9 178.39 52.51 178.39 43.68Z" fill="black"/>
<path d="M222.31 43.68C222.31 53.47 215.21 60.77 204.45 60.77C193.65 60.77 186.59 53.47 186.59 43.68C186.59 33.89 193.65 26.54 204.45 26.54C215.21 26.54 222.31 33.89 222.31 43.68ZM219.05 43.68C219.05 33.89 213.39 27.12 204.46 27.12C195.53 27.12 189.87 33.89 189.87 43.68C189.87 53.47 195.54 60.24 204.46 60.24C213.38 60.24 219.05 53.47 219.05 43.68Z" fill="black"/>
</svg>
